<svg width="180" height="20" viewBox="0 0 180 20" fill="none" xmlns="http://www.w3.org/2000/svg">
<g clip-path="url(#clip0_24_60)">
<path fill-rule="evenodd" clip-rule="evenodd" d="M69.4319 0.395996H38.5172V4.232H69.4319V0.395996ZM69.4319 8.272H38.5172V12.108H69.4319V8.272ZM38.5172 16.148H69.4319V19.984H38.5172V16.148Z" fill="#737380"/>
<path fill-rule="evenodd" clip-rule="evenodd" d="M112.135 0.395996H143.049V4.232H112.135V0.395996ZM129.299 19.984V7.0036L129.13 7.0876L126.054 8.6236V19.984H129.299Z" fill="#737380"/>
<path fill-rule="evenodd" clip-rule="evenodd" d="M149.363 0.555997L160.775 6.244L156.63 8.312L149.038 4.528V0.395996L149.363 0.555997ZM179.953 15.804V19.936L168.246 14.104L172.387 12.036L179.953 15.804ZM179.953 4.53199V0.399994L179.631 0.555994L164.511 8.10399H164.507L160.366 10.176L149.038 15.828V19.964L164.511 12.24L168.652 10.172L179.953 4.53199Z" fill="#DC1637"/>
<path d="M3.24474 20H0V16.548C0.00178989 12.268 1.44004 8.16375 3.99902 5.13621C6.55801 2.10868 10.0286 0.405292 13.6489 0.399994H32.5387V4.23599H13.6489C10.8912 4.24022 8.24747 5.53692 6.29719 7.84184C4.3469 10.1468 3.24921 13.2718 3.24474 16.532V20Z" fill="#737380"/>
<path fill-rule="evenodd" clip-rule="evenodd" d="M76.7926 0.394043H73.6185V1.31243L73.6172 1.31523C73.6172 1.61556 73.617 1.95851 73.6167 2.30085L73.6167 2.30222L73.6167 2.30702C73.6162 2.98837 73.6157 3.66628 73.6172 4V20H76.862V4.90851L79.6522 6.36295L104.554 19.9774V19.984H104.566L104.596 20H107.801V16.9116L107.799 16.911V10.092L107.793 10.0948V0.399998H104.549V15.2332L102.487 14.1756L76.7926 0.394043Z" fill="#737380"/>
</g>
<defs>
<clipPath id="clip0_24_60">
<rect width="180" height="20" fill="white"/>
</clipPath>
</defs>
</svg>
